<?xml version="1.0" encoding="UTF-8" standalone="no"?>
<svg
   version="1.1"
   width="46.823326"
   height="48.732533"
   color-interpolation="linearRGB"
   id="svg58"
   sodipodi:docname="Action_GoHome.svg"
   inkscape:dataloss="true"
   xmlns:inkscape="http://www.inkscape.org/namespaces/inkscape"
   xmlns:sodipodi="http://sodipodi.sourceforge.net/DTD/sodipodi-0.dtd"
   xmlns="http://www.w3.org/2000/svg"
   xmlns:svg="http://www.w3.org/2000/svg">
  <defs
     id="defs62" />
  <sodipodi:namedview
     id="namedview60"
     pagecolor="#ffffff"
     bordercolor="#999999"
     borderopacity="1"
     inkscape:showpageshadow="0"
     inkscape:pageopacity="0"
     inkscape:pagecheckerboard="0"
     inkscape:deskcolor="#d1d1d1"
     showgrid="false"
     inkscape:zoom="15.625"
     inkscape:cx="32.032"
     inkscape:cy="32.096"
     inkscape:window-width="2556"
     inkscape:window-height="1400"
     inkscape:window-x="1920"
     inkscape:window-y="18"
     inkscape:window-maximized="1"
     inkscape:current-layer="svg58" />
  <g
     id="g56"
     transform="translate(-8.2373142,-9.7602377)">
    <path
       style="fill:none;stroke:#000000;stroke-width:4"
       d="m 12,43 v 1 L 34,56 52,37 V 36 L 34,30 Z"
       id="path2" />
    <path
       style="fill:#06e506"
       d="m 12,43 v 1 l 22,12 v -2 z"
       id="path4" />
    <path
       style="fill:#038403"
       d="M 34,56 52,37 V 36 L 34,54 Z"
       id="path6" />
    <linearGradient
       id="gradient0"
       gradientUnits="userSpaceOnUse"
       x1="6"
       y1="20"
       x2="58"
       y2="20">
      <stop
         offset="0"
         stop-color="#06e506"
         id="stop8" />
      <stop
         offset="1"
         stop-color="#04b604"
         id="stop10" />
    </linearGradient>
    <path
       style="fill:url(#gradient0)"
       d="M 12,43 34,54 36.03,51.79 34,52 36,30 Z"
       id="path13" />
    <linearGradient
       id="gradient1"
       gradientUnits="userSpaceOnUse"
       x1="6"
       y1="20"
       x2="58"
       y2="20">
      <stop
         offset="0"
         stop-color="#04a104"
         id="stop15" />
      <stop
         offset="1"
         stop-color="#04a004"
         id="stop17" />
    </linearGradient>
    <path
       style="fill:url(#gradient1)"
       d="m 34,48 v 4 L 36.03,51.79 52,36 32,29 Z"
       id="path20" />
    <path
       style="fill:none;stroke:#000000;stroke-width:4"
       d="M 16,41 34,50 48,36 V 24 L 30,18 16,29 Z"
       id="path22" />
    <radialGradient
       id="gradient2"
       gradientUnits="userSpaceOnUse"
       cx="0"
       cy="0"
       r="64"
       gradientTransform="matrix(0.3437,0,0,0.4375,24,38)">
      <stop
         offset="0"
         stop-color="#ffffff"
         id="stop24" />
      <stop
         offset="1"
         stop-color="#b6b6b6"
         id="stop26" />
    </radialGradient>
    <path
       style="fill:url(#gradient2)"
       d="m 16,27 v 14 l 2,1 V 33.75 L 22,35 v 9 l 12,6 V 32 L 22,18 Z"
       id="path29" />
    <linearGradient
       id="gradient3"
       gradientUnits="userSpaceOnUse"
       x1="64.650002"
       y1="9.6199999"
       x2="70.610001"
       y2="15.82">
      <stop
         offset="0"
         stop-color="#a2a2a2"
         id="stop31" />
      <stop
         offset="1"
         stop-color="#bbbbbb"
         id="stop33" />
    </linearGradient>
    <path
       style="fill:url(#gradient3)"
       d="M 48,22 V 36 L 34,50 V 32 Z"
       id="path36" />
    <path
       style="fill:#000000"
       d="M 18,33.75 V 42 l 4,2 V 35 Z M 26,37 v 5 l 4,2 v -5.38 z m 12,0 v 5 l 2,-2 v -5 z m 6,-6 v 5 l 2,-2 v -5 z"
       id="path38" />
    <path
       style="fill:none;stroke:#000000;stroke-width:4"
       d="M 13,30 21,21 35,38 37,37 52,25 38,12 21,17 11,28 Z"
       id="path40" />
    <linearGradient
       id="gradient4"
       gradientUnits="userSpaceOnUse"
       x1="72.940002"
       y1="-25.67"
       x2="88.860001"
       y2="-6.2399998">
      <stop
         offset="0"
         stop-color="#ea0606"
         id="stop42" />
      <stop
         offset="1"
         stop-color="#d00505"
         id="stop44" />
    </linearGradient>
    <path
       style="fill:url(#gradient4)"
       d="M 37,37 52,25 38,12 21,17 Z"
       id="path47" />
    <linearGradient
       id="gradient5"
       gradientUnits="userSpaceOnUse"
       x1="60.119999"
       y1="-4.9299998"
       x2="70.879997"
       y2="9">
      <stop
         offset="0"
         stop-color="#ff4444"
         id="stop49" />
      <stop
         offset="1"
         stop-color="#f10606"
         id="stop51" />
    </linearGradient>
    <path
       style="fill:url(#gradient5)"
       d="m 11,28 2,2 8,-9 14,17 2,-1 -16,-20 z"
       id="path54" />
  </g>
</svg>
