<?xml version="1.0" encoding="UTF-8" standalone="no"?>
<svg
   version="1.1"
   width="49"
   height="62.72789"
   color-interpolation="linearRGB"
   id="svg69"
   xmlns="http://www.w3.org/2000/svg"
   xmlns:svg="http://www.w3.org/2000/svg">
  <defs
     id="defs73" />
  <g
     id="g67"
     transform="translate(-15,0.22864194)">
    <path
       style="fill:#010101;fill-opacity:0.4941"
       d="m 43,62 h 9 L 64,48 53,42 Z"
       id="path2" />
    <path
       style="fill:none;stroke:#010000;stroke-width:4"
       d=""
       id="path4" />
    <path
       style="fill:none;stroke:#010000;stroke-width:4"
       d="M 17,9 V 43.06 L 19,44 v 3 L 43,60 55,47 V 16.14 L 53,12 29,2 Z"
       id="path6" />
    <linearGradient
       id="gradient0"
       gradientUnits="userSpaceOnUse"
       x1="13.84"
       y1="-38.139999"
       x2="58.34"
       y2="-27.700001">
      <stop
         offset="0"
         stop-color="#fff8ea"
         id="stop8" />
      <stop
         offset="1"
         stop-color="#f5deac"
         id="stop10" />
    </linearGradient>
    <path
       style="fill:url(#gradient0)"
       d="M 17,9 43,19 53,12 29,2 Z"
       id="path13" />
    <linearGradient
       id="gradient1"
       gradientUnits="userSpaceOnUse"
       x1="30.610001"
       y1="-13.89"
       x2="67.769997"
       y2="-7.2399998">
      <stop
         offset="0"
         stop-color="#a87756"
         id="stop15" />
      <stop
         offset="1"
         stop-color="#d0b780"
         id="stop17" />
    </linearGradient>
    <path
       style="fill:url(#gradient1)"
       d="M 43,19 V 60 L 55,47 V 16 l -2,-4 z"
       id="path20" />
    <linearGradient
       id="gradient2"
       gradientUnits="userSpaceOnUse"
       x1="6.2399998"
       y1="88.730003"
       x2="-15.61"
       y2="69.379997">
      <stop
         offset="0.0007"
         stop-color="#7b5845"
         id="stop22" />
      <stop
         offset="1"
         stop-color="#ddd0b4"
         id="stop24" />
    </linearGradient>
    <path
       style="fill:url(#gradient2)"
       d="m 19,44 v 3 l 24,13 2,-2 v -3 l -1.92,1.97 z"
       id="path27" />
    <linearGradient
       id="gradient3"
       gradientUnits="userSpaceOnUse"
       x1="23.299999"
       y1="93.690002"
       x2="-13.59"
       y2="57.619999">
      <stop
         offset="0"
         stop-color="#efd294"
         id="stop29" />
      <stop
         offset="1"
         stop-color="#ffefce"
         id="stop31" />
    </linearGradient>
    <path
       style="fill:url(#gradient3)"
       d="M 17,9 V 43 L 43,57 V 19 Z M 40,21 V 44 L 19,33 V 13 Z"
       id="path34" />
    <path
       style="fill:#010000"
       d="M 40,21 V 41 L 21,31 21.05,13.87 Z"
       id="path36" />
    <linearGradient
       id="gradient4"
       gradientUnits="userSpaceOnUse"
       x1="6.9499998"
       y1="-50.950001"
       x2="76.900002"
       y2="-40.970001">
      <stop
         offset="0"
         stop-color="#444444"
         id="stop38" />
      <stop
         offset="0.3267"
         stop-color="#9b9b9b"
         id="stop40" />
      <stop
         offset="1"
         stop-color="#656565"
         id="stop42" />
    </linearGradient>
    <path
       style="fill:url(#gradient4)"
       d="M 39,23 V 38 L 22,29 22.05,16.87 Z"
       id="path45" />
    <linearGradient
       id="gradient5"
       gradientUnits="userSpaceOnUse"
       x1="63.810001"
       y1="3.47"
       x2="73.699997"
       y2="31.530001">
      <stop
         offset="1"
         stop-color="#c9bbae"
         id="stop47" />
      <stop
         offset="0"
         stop-color="#917962"
         id="stop49" />
    </linearGradient>
    <path
       style="fill:url(#gradient5)"
       d="M 20.97,31.01 19,33 V 13 l 2.05,0.87 z"
       id="path52" />
    <linearGradient
       id="gradient6"
       gradientUnits="userSpaceOnUse"
       x1="0.69"
       y1="-5.52"
       x2="39.299999"
       y2="-5.52">
      <stop
         offset="0.3484"
         stop-color="#e9d5c5"
         id="stop54" />
      <stop
         offset="0"
         stop-color="#d8c39b"
         id="stop56" />
      <stop
         offset="1"
         stop-color="#e2c195"
         id="stop58" />
    </linearGradient>
    <path
       style="fill:url(#gradient6)"
       d="m 40,41 v 3 L 19,33 21,31.01 Z"
       id="path61" />
    <path
       style="fill:none;stroke:#010000;stroke-width:1"
       d="m 29,43 10,5 z"
       id="path63" />
    <path
       style="fill:#010101;fill-opacity:0.4941"
       d="m 35,48 4,2 v -3 l -4,-2 z"
       id="path65" />
  </g>
</svg>
